<?xml version="1.0" encoding="iso-8859-1"?>
<!-- Generator: Adobe Illustrator 18.1.1, SVG Export Plug-In . SVG Version: 6.00 Build 0)  -->
<svg version="1.1" id="Layer_1" xmlns="http://www.w3.org/2000/svg" xmlns:xlink="http://www.w3.org/1999/xlink" x="0px" y="0px"
	 viewBox="0 0 298 237.449" style="enable-background:new 0 0 298 237.449;" xml:space="preserve">
<g>
	<g>
		<path style="fill:#86888B;" d="M52.966,189.362c0.002-34.141,0.052-68.282-0.069-102.422c-0.012-3.36,1.028-5.45,3.709-7.441
			c9.222-6.847,18.193-14.032,27.39-20.914c2.242-1.677,3.07-3.447,3.093-6.226c0.156-19.041,10.82-29.956,29.885-29.313
			c9.415,0.318,17.218-1.521,23.886-8.276c2.433-2.464,5.771-4.032,8.213-6.49c3.797-3.821,6.874-3.162,10.646,0.126
			c4.886,4.259,10.279,7.931,15.329,12.01c2.202,1.779,4.482,2.53,7.311,2.478c5.153-0.094,10.355-0.244,15.462,0.313
			c13.649,1.488,23.533,12.196,23.485,25.902c-0.018,5.274,1.701,8.487,5.891,11.539c9.537,6.947,18.674,14.444,27.974,21.717
			c0.731,1.769,0.364,3.624,0.365,5.435c0.026,32.826-0.304,65.657,0.237,98.474c0.142,8.601-1.458,15.61-7.486,21.701
			c-6.53,6.6-14.484,9.071-23.546,9.063c-47.156-0.039-94.312,0.014-141.468-0.038c-14.441-0.016-25.171-7.246-29.912-19.938
			C52.427,194.557,51.489,192.01,52.966,189.362z"/>
		<path style="fill:#B5B7B9;" d="M52.966,189.362c3.096,17.133,13.755,26.087,31.072,26.088c47.485,0.002,94.97,0.056,142.455-0.037
			c12.533-0.025,21.442-6.085,26.771-17.4c1.215-2.579,1.781-5.262,1.781-8.185c-0.011-35.821,0.07-71.642,0.128-107.463
			c1.512,1.339,0.858,3.122,0.86,4.705c0.035,32.832,0.125,65.665-0.091,98.496c-0.03,4.54,1.181,6.26,5.716,7.047
			c8.164,1.418,16.309,3.263,23.815,7.049c2.866,1.445,6.076,3.071,6.152,6.61c0.078,3.635-3.227,5.143-6.098,6.549
			c-11.676,5.716-24.379,7.64-37.005,9.534c-43.784,6.568-87.901,7.135-132.005,5.769c-29.213-0.905-58.431-2.958-87.064-9.656
			c-5.347-1.251-10.638-2.739-15.588-5.141c-3.108-1.508-6.767-3.009-6.82-7.161c-0.056-4.317,3.887-5.623,6.951-6.956
			c9.031-3.929,18.61-6.023,28.273-7.817C45.832,190.732,49.589,191.004,52.966,189.362z"/>
		<path style="fill:#FFFFFF;" d="M69.096,94.384c26.705,14.616,53.451,29.16,80.069,43.934c3.618,2.008,6.343,2.203,10.034,0.151
			c28.644-15.925,57.408-31.637,86.144-47.398c1.422-0.78,2.7-1.96,4.52-1.925c0.933,1.566,0.482,3.255,0.484,4.856
			c0.032,29.813-0.394,59.634,0.183,89.435c0.334,17.247-11.964,27.165-26.933,27.038c-46.798-0.398-93.601-0.168-140.402-0.182
			c-8.153-1.68-12.029-7.714-14.787-14.749c-1.466-3.74-1.903-7.71-1.9-11.743c0.016-27.413-0.037-54.826,0.086-82.239
			C66.605,99.063,65.349,95.74,69.096,94.384z"/>
		<path style="fill:#FFFFFF;" d="M92.273,93.285c-0.034-14.641-0.218-29.283-0.054-43.922c0.131-11.648,9.285-20.987,20.979-21.074
			c27.451-0.203,54.905-0.207,82.356,0.009c11.543,0.091,20.522,9.214,20.664,20.748c0.182,14.803-0.071,29.611-0.136,44.417
			c-1.102,1.974-2.867,3.2-4.8,4.226c-16.755,8.901-33.304,18.181-49.805,27.535c-5.484,3.109-9.717,2.651-15.134-0.452
			c-16.458-9.426-33.167-18.422-49.743-27.65C94.873,96.162,92.878,95.51,92.273,93.285z"/>
		<path style="fill:#B5B7B9;" d="M69.096,94.384c-1.567,1.508-0.876,3.45-0.879,5.189c-0.045,28.057,0.064,56.115-0.077,84.172
			c-0.06,11.868,4.59,20.787,15.055,26.548c-14.278,0.17-25.098-10.352-25.108-24.505c-0.024-30.741-0.01-61.483,0.001-92.224
			c0.001-1.441,0.123-2.882,0.209-4.762C62.337,90.43,65.836,92.16,69.096,94.384z"/>
		<path style="fill:#B5B7B9;" d="M92.273,93.285c19.644,10.879,39.329,21.685,58.885,32.72c2.724,1.537,4.553,0.826,6.829-0.437
			c19.347-10.734,38.725-21.411,58.095-32.105c1.117,5.446-1.462,8.243-6.221,10.773c-17.438,9.27-34.636,18.992-51.859,28.66
			c-2.432,1.365-4.388,1.577-6.894,0.176c-18.689-10.448-37.402-20.856-56.211-31.085C90.786,99.751,92.375,96.406,92.273,93.285z"
			/>
		<path style="fill:#D3D4D6;" d="M87.035,62.843c0,11.574-0.002,21.972,0.002,32.371c0.001,1.826-0.647,2.444-2.411,1.469
			c-7.26-4.009-14.521-8.017-21.825-11.946c-2.119-1.14-1.59-2.101-0.103-3.24C70.459,75.554,78.216,69.603,87.035,62.843z"/>
		<path style="fill:#D2D4D5;" d="M222.243,63.354c8.729,6.713,16.957,13.041,25.953,19.958c-8.757,4.837-17.034,9.409-25.953,14.335
			C222.243,86.025,222.243,75.122,222.243,63.354z"/>
		<path style="fill:#D2D4D5;" d="M168.957,22.405c-10.395,0-19.235,0-29.422,0c5.128-3.95,9.281-7.138,13.42-10.345
			c1.142-0.885,2.146-0.577,3.154,0.219C159.999,15.35,163.894,18.416,168.957,22.405z"/>
		<path style="fill:#888A8C;" d="M176.686,198.136c-0.54,2.583-2.279,2.949-4.423,1.881c-3.275-1.631-6.734-3.085-9.619-5.269
			c-5.857-4.434-11.253-4.081-17.044,0.067c-2.814,2.016-6.134,3.325-9.227,4.951c-1.757,0.923-3.615,1.482-4.694-0.752
			c-0.971-2.009,0.626-3.031,2.141-3.837c6.022-3.204,12.082-6.337,18.082-9.582c1.653-0.894,3.113-0.822,4.701,0.041
			c5.85,3.175,11.713,6.325,17.587,9.454C175.419,195.745,176.449,196.501,176.686,198.136z"/>
		<path style="fill:#87898C;" d="M74.25,150.638c-1.419,0.124-2.807-0.051-3.199-1.645c-0.421-1.709,0.422-2.966,2.135-3.351
			c13.16-2.953,24.773-9.295,36.042-16.393c1.573-0.991,3.154-1.433,4.372,0.284c1.075,1.514,0.337,2.883-1.072,3.804
			c-11.441,7.476-23.419,13.81-36.796,17.128C75.254,150.585,74.746,150.587,74.25,150.638z"/>
		<path style="fill:#87898C;" d="M231.641,150.596c-1.688-0.495-4.251-1.167-6.761-1.998c-10.46-3.463-20.078-8.641-29.326-14.551
			c-1.571-1.004-3.344-2.149-2.147-4.323c1.226-2.225,3.042-1.339,4.683-0.311c11.141,6.981,22.612,13.232,35.592,16.169
			c1.659,0.375,2.655,1.396,2.4,3.198C235.875,150.234,234.9,150.695,231.641,150.596z"/>
		<path style="fill:#87898C;" d="M112.071,163.634c-0.046,4.134-3.607,7.618-7.668,7.502c-4.079-0.117-7.48-3.771-7.324-7.87
			c0.152-4.003,3.367-7.061,7.454-7.092C108.884,156.141,112.118,159.342,112.071,163.634z"/>
		<path style="fill:#87898C;" d="M203.666,171.148c-4.011-0.104-7.541-3.874-7.367-7.867c0.183-4.188,3.656-7.296,7.952-7.116
			c4.094,0.172,7.019,3.292,6.99,7.458C211.213,167.833,207.768,171.254,203.666,171.148z"/>
		<path style="fill:#87898B;" d="M184.39,75.717c-0.002,16.781-13.404,30.323-29.992,30.306
			c-16.642-0.018-30.27-13.54-30.343-30.105c-0.074-16.954,13.417-30.463,30.385-30.426
			C171.206,45.528,184.392,58.835,184.39,75.717z"/>
		<path style="fill:#D3D4D6;" d="M153.63,100.554c-13.478-0.139-24.541-11.519-24.443-25.144
			c0.096-13.455,12.066-25.116,25.496-24.837c13.873,0.288,24.618,11.53,24.482,25.616
			C179.031,90.057,167.877,100.701,153.63,100.554z"/>
		<path style="fill:#87898B;" d="M163.974,75.258c0.234,2.038-0.308,3.95-0.916,5.862c-1.28,4.028-3.945,6.691-8.151,7.041
			c-4.202,0.35-7.32-1.879-9.263-5.557c-2.344-4.44-3.021-9.18-1.365-13.954c1.527-4.403,4.454-7.252,9.537-7.386
			c5.115-0.135,7.501,3.065,9.007,7.164C163.609,70.568,164.283,72.867,163.974,75.258z"/>
		<path style="fill:#D2D3D5;" d="M148.905,74.74c0.114-2.094-0.138-3.797,0.805-5.283c0.993-1.565,2.111-2.995,4.227-3.006
			c2.27-0.011,3.148,1.658,3.778,3.372c0.913,2.481,1.686,5.032,0.856,7.736c-0.72,2.343-0.997,5.146-4.404,5.034
			c-3.045-0.1-4.096-2.465-4.879-4.874C148.939,76.644,148.986,75.439,148.905,74.74z"/>
	</g>
</g>
</svg>
